<svg xmlns="http://www.w3.org/2000/svg" viewBox="0 0 520 470">
  <defs>
    <linearGradient id="case" x1="0" y1="0" x2="1" y2="1"><stop stop-color="#111827"/><stop offset="1" stop-color="#020617"/></linearGradient>
    <radialGradient id="fanA"><stop stop-color="#0b1220"/><stop offset=".55" stop-color="#0b1220"/><stop offset=".62" stop-color="#2563eb"/><stop offset=".8" stop-color="#7c3aed"/><stop offset="1" stop-color="#ff5a00"/></radialGradient>
    <linearGradient id="glass" x1="0" y1="0" x2="1" y2="1"><stop stop-color="#0b2b61" stop-opacity=".7"/><stop offset="1" stop-color="#020617" stop-opacity=".88"/></linearGradient>
    <filter id="s" x="-40%" y="-40%" width="180%" height="210%"><feDropShadow dx="0" dy="22" stdDeviation="18" flood-color="#000" flood-opacity=".48"/></filter>
    <filter id="g"><feGaussianBlur stdDeviation="12"/></filter>
  </defs>
  <ellipse cx="292" cy="430" rx="190" ry="24" fill="#000" opacity=".45"/>
  <ellipse cx="330" cy="398" rx="145" ry="16" fill="#ff5a00" opacity=".2" filter="url(#g)"/>
  <g filter="url(#s)">
    <rect x="156" y="35" width="260" height="356" rx="24" fill="url(#case)" stroke="#334155" stroke-width="4"/>
    <rect x="178" y="58" width="195" height="308" rx="15" fill="url(#glass)" stroke="#1e40af" stroke-width="2"/>
    <rect x="389" y="52" width="25" height="326" rx="10" fill="#0f172a"/>
    <circle cx="378" cy="123" r="47" fill="url(#fanA)"/>
    <circle cx="378" cy="223" r="47" fill="url(#fanA)" transform="rotate(75 378 223)"/>
    <circle cx="378" cy="323" r="47" fill="url(#fanA)" transform="rotate(150 378 323)"/>
    <rect x="209" y="96" width="108" height="76" rx="10" fill="#111827" stroke="#64748b"/>
    <circle cx="263" cy="134" r="33" fill="url(#fanA)"/>
    <rect x="203" y="205" width="160" height="47" rx="9" fill="#020617" stroke="#334155"/>
    <circle cx="244" cy="229" r="17" fill="none" stroke="#2563eb" stroke-width="8"/>
    <circle cx="304" cy="229" r="17" fill="none" stroke="#ff5a00" stroke-width="8"/>
    <rect x="222" y="285" width="122" height="20" rx="5" fill="#1f2937"/>
    <rect x="222" y="313" width="122" height="20" rx="5" fill="#1f2937"/>
    <path d="M232 295h102M232 323h102" stroke="#22d3ee" stroke-width="5" stroke-linecap="round" opacity=".9"/>
  </g>
</svg>
