<svg xmlns="http://www.w3.org/2000/svg" viewBox="0 0 760 470">
<defs><linearGradient id="bg" x1="0" x2="1"><stop stop-color="#07152c"/><stop offset="1" stop-color="#0f4ac7"/></linearGradient><linearGradient id="o" x1="0" y1="0" x2="1" y2="1"><stop stop-color="#ffb000"/><stop offset="1" stop-color="#ff4e00"/></linearGradient><filter id="s"><feDropShadow dx="0" dy="16" stdDeviation="14" flood-opacity=".25"/></filter></defs>
<path d="M80 390h600l-70 45H150z" fill="#d9e0e8"/>
<g filter="url(#s)"><rect x="320" y="42" width="260" height="330" rx="30" fill="#101827"/><rect x="345" y="68" width="210" height="278" rx="16" fill="#071e4b"/><circle cx="450" cy="150" r="58" fill="none" stroke="url(#o)" stroke-width="18"/><circle cx="450" cy="265" r="58" fill="none" stroke="#1763ff" stroke-width="18"/><rect x="120" y="95" width="260" height="185" rx="18" fill="#111827"/><rect x="135" y="110" width="230" height="155" rx="10" fill="url(#bg)"/><path d="M85 300h330l-28 34H113z" fill="#b9c3cf"/><path d="M560 190c55 0 94 47 94 105v50c0 48-38 86-86 86s-86-38-86-86v-50c0-58 32-105 78-105z" fill="url(#o)"/><path d="M568 215v65" stroke="#fff" stroke-width="10" stroke-linecap="round"/></g>
</svg>