<svg xmlns="http://www.w3.org/2000/svg" viewBox="0 0 760 470">
<defs><linearGradient id="b" x1="0" x2="1" y1="0" y2="1"><stop stop-color="#1763ff"/><stop offset="1" stop-color="#071e4b"/></linearGradient><linearGradient id="o" x1="0" x2="1"><stop stop-color="#ffb000"/><stop offset="1" stop-color="#ff5a00"/></linearGradient><filter id="s"><feDropShadow dx="0" dy="18" stdDeviation="14" flood-opacity=".22"/></filter></defs>
<path d="M70 395h620l-65 40H135z" fill="#dce4ed"/>
<g filter="url(#s)"><rect x="105" y="90" width="190" height="300" rx="74" fill="url(#b)"/><circle cx="200" cy="190" r="62" fill="#08101d"/><circle cx="200" cy="190" r="37" fill="url(#o)"/><circle cx="200" cy="315" r="42" fill="#08101d"/><rect x="350" y="75" width="210" height="318" rx="60" fill="#f7f9fc" stroke="#b6c2d0" stroke-width="7"/><circle cx="455" cy="205" r="72" fill="#0f172a"/><circle cx="455" cy="205" r="48" fill="url(#b)"/><circle cx="435" cy="185" r="14" fill="#c7ebff"/><rect x="585" y="195" width="110" height="170" rx="42" fill="url(#o)"/><circle cx="640" cy="252" r="30" fill="#111827"/><path d="M610 140c-35-54-95-54-130 0M625 115c-48-75-130-75-178 0" fill="none" stroke="#1763ff" stroke-width="13" stroke-linecap="round"/></g>
</svg>